<?xml version="1.0" encoding="utf-8"?>
<!-- Generator: Adobe Illustrator 26.2.1, SVG Export Plug-In . SVG Version: 6.00 Build 0)  -->
<svg version="1.1" xmlns="http://www.w3.org/2000/svg" xmlns:xlink="http://www.w3.org/1999/xlink" x="0px" y="0px" width="623.1px"
	 height="500px" viewBox="0 0 623.1 500" style="enable-background:new 0 0 623.1 500;" xml:space="preserve">
<style type="text/css">
	.st0{fill:#0775D7;}
</style>
<g id="Layer_2">
</g>
<g id="Layer_1">
	<g>
		<polygon class="st0" points="371.9,116.3 276.1,46.1 276.1,79.2 171.6,120.3 141.4,159.8 141.4,246.2 172.2,251.4 171.5,153.1 		
			"/>
		<polygon class="st0" points="371.9,116.3 372.8,282.1 172.2,251.4 255.2,349.8 255.2,311.1 370.8,351.1 445.7,287.7 445.7,102.8 
					"/>
	</g>
	<g>
		<path class="st0" d="M101.1,392.9l19.9,47.6h-8.6l-4.8-11.9H86.4l-4.8,11.9h-8.2l19.9-47.6H101.1z M97,401.9l-8.4,20.5h16.7
			L97,401.9z"/>
		<path class="st0" d="M125.2,435.2l19.3-23.2h-18.3v-6.4h28.6v5.4l-19.4,23.2h19.4v6.3h-29.6V435.2z"/>
		<path class="st0" d="M188.2,423.1v-17.4h7.5v34.9h-6.6l-0.5-6.1c-2.5,4.5-6.6,6.7-12.2,6.7c-3.9,0-7.1-1.3-9.6-3.9
			c-2.5-2.6-3.8-6.3-3.8-11.2v-20.5h7.5v18.1c0,3.5,0.8,6.2,2.3,8c1.6,1.8,3.6,2.7,6,2.7c2.8,0,5-0.9,6.7-2.8
			C187.3,429.7,188.2,426.9,188.2,423.1z"/>
		<path class="st0" d="M206,440.5v-34.9h6.7l0.5,7.3c2.5-5.3,7-8,13.7-8l-0.1,7.6h-1.5c-3.7,0-6.6,1.1-8.6,3.2s-3.1,5.4-3.1,9.8
			v14.9H206z"/>
		<path class="st0" d="M266.1,424.2h-27.9c0.2,3.1,1.4,5.6,3.5,7.5c2.1,2,4.8,2.9,8,2.9c1.4,0,2.6-0.2,3.8-0.5
			c1.2-0.4,2.2-0.8,3-1.3c0.8-0.5,1.5-1,2.1-1.5c0.6-0.5,1-1,1.2-1.3l0.4-0.5l4.6,4.1c-0.1,0.2-0.3,0.5-0.6,0.8
			c-0.2,0.3-0.8,0.9-1.8,1.8c-0.9,0.9-1.9,1.6-3,2.3c-1.1,0.7-2.5,1.3-4.4,1.8c-1.8,0.5-3.8,0.8-5.8,0.8c-5.3,0-9.7-1.7-13.2-5.1
			c-3.5-3.4-5.3-7.7-5.3-12.8c0-5.1,1.8-9.5,5.4-13c3.6-3.5,8-5.3,13.2-5.3c4.8,0,8.8,1.7,12.1,5s5,7.3,5,12L266.1,424.2z
			 M249.1,410.7c-2.7,0-5.1,0.8-7,2.3c-1.9,1.5-3.2,3.6-3.7,6.1h20.8c-0.4-2.5-1.6-4.5-3.4-6.1C253.9,411.5,251.7,410.7,249.1,410.7
			z"/>
		<path class="st0" d="M294.7,392.9h16.1c7.6,0,13.9,2.2,18.7,6.7s7.3,10.1,7.3,16.9c0,6.8-2.5,12.5-7.4,17.1
			c-5,4.6-11.3,6.9-18.9,6.9h-15.8V392.9z M302.5,399.7v34h8.5c5.3,0,9.6-1.6,13-4.8c3.4-3.2,5.1-7.3,5.1-12.2
			c0-4.9-1.7-8.9-5.1-12.1c-3.4-3.2-7.7-4.9-12.9-4.9H302.5z"/>
		<path class="st0" d="M379.1,424.2h-27.9c0.2,3.1,1.4,5.6,3.5,7.5c2.1,2,4.8,2.9,8,2.9c1.4,0,2.6-0.2,3.8-0.5
			c1.2-0.4,2.2-0.8,3-1.3c0.8-0.5,1.5-1,2.1-1.5c0.6-0.5,1-1,1.2-1.3l0.4-0.5l4.6,4.1c-0.1,0.2-0.3,0.5-0.6,0.8
			c-0.2,0.3-0.8,0.9-1.8,1.8c-0.9,0.9-1.9,1.6-3,2.3c-1.1,0.7-2.5,1.3-4.4,1.8s-3.8,0.8-5.8,0.8c-5.3,0-9.7-1.7-13.2-5.1
			c-3.5-3.4-5.3-7.7-5.3-12.8c0-5.1,1.8-9.5,5.4-13s8-5.3,13.2-5.3c4.8,0,8.8,1.7,12.1,5s5,7.3,5,12L379.1,424.2z M362.2,410.7
			c-2.7,0-5.1,0.8-7,2.3c-1.9,1.5-3.2,3.6-3.7,6.1h20.8c-0.4-2.5-1.6-4.5-3.4-6.1C367,411.5,364.8,410.7,362.2,410.7z"/>
		<path class="st0" d="M396,440.5l-14.3-34.9h8.3l9.9,25.3l9.9-25.3h8l-14.4,34.9H396z"/>
		<path class="st0" d="M446.9,392.2c7,0,12.9,2.3,17.6,7c4.7,4.7,7.1,10.5,7.1,17.3s-2.4,12.7-7.2,17.5c-4.8,4.8-10.7,7.1-17.7,7.1
			c-7,0-12.8-2.3-17.6-7c-4.7-4.7-7.1-10.4-7.1-17.3c0-6.9,2.4-12.7,7.2-17.5C434,394.6,439.9,392.2,446.9,392.2z M446.7,434
			c4.9,0,8.9-1.7,12.1-5c3.2-3.3,4.9-7.4,4.9-12.3c0-4.9-1.6-9-4.9-12.3c-3.2-3.3-7.3-5-12.1-5c-4.8,0-8.8,1.7-12.1,5
			c-3.3,3.3-4.9,7.4-4.9,12.3c0,4.9,1.6,9,4.9,12.3C437.9,432.3,441.9,434,446.7,434z"/>
		<path class="st0" d="M480.5,451.4v-45.8h6.2l0.7,6.2c1.4-2.1,3.2-3.8,5.4-5c2.2-1.2,4.7-1.8,7.4-1.8c4.7,0,8.7,1.7,12.1,5.2
			c3.3,3.4,5,7.7,5,12.8c0,5.1-1.7,9.4-5.1,13c-3.4,3.6-7.5,5.3-12.2,5.3c-5.1,0-9.1-2-12-6v16.2H480.5z M490.9,431.1
			c2.1,2.2,4.8,3.2,8,3.2c3.2,0,5.8-1.1,7.9-3.2c2.1-2.2,3.2-4.8,3.2-8.1c0-3.2-1.1-5.8-3.2-8c-2.1-2.2-4.7-3.2-7.9-3.2
			c-3.2,0-5.8,1.1-8,3.2c-2.1,2.2-3.2,4.8-3.2,8C487.7,426.3,488.7,429,490.9,431.1z"/>
		<path class="st0" d="M538.4,419.9c7.3,2.1,10.9,5.6,10.9,10.7c0,3.1-1.2,5.6-3.6,7.7c-2.4,2-5.7,3-9.8,3c-2.5,0-4.9-0.4-7.2-1.2
			c-2.3-0.8-3.9-1.6-4.9-2.3l-1.5-1.2l3.3-4.9c0.3,0.3,0.8,0.6,1.4,1.1c0.6,0.5,1.8,1,3.6,1.8c1.8,0.7,3.6,1.1,5.4,1.1
			c1.9,0,3.3-0.4,4.4-1.2c1.1-0.8,1.6-1.8,1.6-3c0-1.3-0.6-2.4-1.7-3.4c-1.1-1-3.3-1.9-6.6-2.9c-3.1-0.9-5.6-2.2-7.3-4
			c-1.7-1.8-2.6-3.8-2.6-6.1c0-2.8,1.1-5.1,3.4-7c2.3-1.9,5.4-2.9,9.4-2.9c2.2,0,4.3,0.3,6.3,1s3.5,1.4,4.5,2l1.4,1l-3.3,5
			c-0.3-0.2-0.7-0.5-1.2-0.9c-0.5-0.4-1.5-0.9-3-1.5c-1.5-0.6-3-0.9-4.5-0.9c-1.8,0-3.1,0.4-4.1,1.1c-1,0.7-1.5,1.6-1.5,2.6
			c0,1.1,0.5,2.1,1.5,3C533.7,418.3,535.6,419.1,538.4,419.9z"/>
	</g>
</g>
</svg>
